<?xml version="1.0" encoding="utf-8"?>
<!-- Generator: Adobe Illustrator 15.1.0, SVG Export Plug-In  -->
<!DOCTYPE svg PUBLIC "-//W3C//DTD SVG 1.1//EN" "http://www.w3.org/Graphics/SVG/1.1/DTD/svg11.dtd" [
	<!ENTITY ns_flows "http://ns.adobe.com/Flows/1.0/">
]>
<svg version="1.1"
	 xmlns="http://www.w3.org/2000/svg" xmlns:xlink="http://www.w3.org/1999/xlink" xmlns:a="http://ns.adobe.com/AdobeSVGViewerExtensions/3.0/"
	 x="0px" y="0px" width="434px" height="74px" viewBox="-1.068 -0.892 434 74"
	 overflow="visible" enable-background="new -1.068 -0.892 434 74" xml:space="preserve">
<defs>
</defs>
<path fill="#E68940" d="M32.317,11.819c16.784,2.997,21.816,15.032,26.256,25.651c5.029,12.028,11.472,23.699,29.634,22.952
	c14.523-0.601,24.851-14.512,24.979-26.592C111.208,20.648,100.938,7.168,81.76,7.168c-12.062,0-20.603,5.334-25.773,12.569
	C50.44,12.006,41.521,7.062,30.939,7.062c-7.434,0-14.006,2.606-19.165,6.824C17.117,11.501,23.884,10.315,32.317,11.819z
	 M81.76,23.648c7.654,0,14.139,6.272,14.139,14.885S89.415,53.419,81.76,53.419c-7.656,0-14.141-6.273-14.141-14.886
	S74.104,23.648,81.76,23.648z"/>
<path fill="#B62029" d="M88.392,64.87c-0.602,0.024-1.192,0.035-1.772,0.035c-21.4,0.004-28.365-16.658-32.152-25.719
	c-4.197-10.036-8.536-20.414-22.933-22.985c-10.167-1.817-18.75,0.444-25.506,6.717c-1.577,1.463-2.863,2.977-3.888,4.367
	C0.754,30.905,0,34.786,0,38.746c0,17.543,14.352,31.259,31.258,31.259c6.061,0,11.908-1.808,16.799-5.315
	c2.901-1.977,5.505-4.542,7.749-7.625c5.151,7.37,13.748,12.833,25.954,12.833c13.424,0,22.485-6.604,27.395-15.089
	C104.034,60.525,96.94,64.516,88.392,64.87z M31.046,21.947c9.143,0,12.652,6.59,13.395,10.1H17.65
	C18.394,28.537,21.903,21.947,31.046,21.947z M41.998,49.591c-2.446,3.083-5.316,5.53-10.74,5.53c-6.91,0-12.757-4.149-13.82-11.166
	h33.004c0.327,1.891,0.825,3.783,1.497,5.636H41.998z"/>
<path fill="#ED1C2B" d="M112.341,6.476l-0.187,5.378c0,0-0.015,0.882-0.55,0.945c-0.534,0.062-2.155,0.215-2.155,0.215l5.854,8.859
	c0,0,0.696,0.704-0.105,1.713c-0.8,1.011-1.727,2.152-1.727,2.152l8.738,0.973c0,0,0.482-0.08,0.328,0.417l-2.794,8.058l1.697,0.528
	l2.321-8.29c0,0,0.03-0.277,0.327-0.127c0.296,0.149,7.832,4.068,7.832,4.068l-0.173-3.03c0,0-0.24-0.704,0.714-1.008l10.038-4.029
	c0,0-1.797-1.304-1.776-1.555c0,0-0.298-0.15,0.054-0.727c0.353-0.577,3.024-4.752,3.024-4.752l-4.319-0.372
	c0,0-1.185-0.052-1.168-0.85c0.021-0.795-0.093-2.461-0.093-2.461l-5.06,3.118c0,0-1.807,0.839-0.789-0.961l4.776-8.355
	l-3.442,0.761c0,0-1.007,0.2-0.991-0.31L131.523,0l-4.512,4.747c0,0-0.418,0.614-0.973,0.183c-0.551-0.429-2.476-2.887-2.476-2.887
	l-0.975,9.564c0,0-0.191,1.717-1.043,0.593c-0.851-1.124-2.527-5.479-2.527-5.479l-1.485,1.829c0,0-0.368,0.542-1.364,0.06
	C115.173,8.129,112.341,6.476,112.341,6.476z"/>
<path fill="#B62029" d="M144.099,26.129h19.267v6.574h-12.597v6.382h12.597v6.455h-12.597v9.285h12.597v6.599h-19.267V26.129z
	 M166.942,35.319h6.549v2.674c1.486-1.252,2.831-2.123,4.038-2.612c1.205-0.489,2.438-0.734,3.702-0.734
	c2.587,0,4.782,0.904,6.588,2.711c1.518,1.535,2.275,3.808,2.275,6.814v17.252h-6.478V49.991c0-3.115-0.14-5.185-0.419-6.207
	c-0.28-1.022-0.767-1.801-1.461-2.335c-0.694-0.536-1.551-0.805-2.573-0.805c-1.325,0-2.461,0.444-3.41,1.33
	c-0.95,0.888-1.609,2.114-1.975,3.68c-0.193,0.814-0.288,2.58-0.288,5.296v10.474h-6.549V35.319z M213.755,35.319h6.527v22.36
	c0,4.416-0.888,7.662-2.665,9.741c-2.383,2.816-5.972,4.224-10.772,4.224c-2.559,0-4.711-0.319-6.454-0.96
	c-1.745-0.64-3.216-1.579-4.414-2.818c-1.201-1.241-2.088-2.748-2.664-4.523h7.222c0.64,0.736,1.463,1.292,2.471,1.668
	c1.007,0.375,2.199,0.563,3.575,0.563c1.76,0,3.174-0.271,4.246-0.815c1.072-0.544,1.827-1.248,2.268-2.112
	c0.439-0.863,0.66-2.351,0.66-4.462c-1.152,1.15-2.359,1.979-3.624,2.483c-1.264,0.503-2.696,0.756-4.294,0.756
	c-3.502,0-6.462-1.265-8.878-3.792c-2.415-2.527-3.623-5.725-3.623-9.597c0-4.144,1.279-7.47,3.838-9.982
	c2.32-2.271,5.088-3.406,8.303-3.406c1.502,0,2.924,0.276,4.258,0.828c1.336,0.551,2.676,1.46,4.02,2.723V35.319z M206.965,40.766
	c-2.062,0-3.767,0.691-5.11,2.075s-2.015,3.123-2.015,5.218c0,2.176,0.687,3.959,2.063,5.35c1.376,1.394,3.103,2.089,5.183,2.089
	c2.03,0,3.707-0.68,5.026-2.039c1.32-1.36,1.98-3.144,1.98-5.352c0-2.174-0.665-3.942-1.992-5.303
	C210.772,41.444,209.061,40.766,206.965,40.766z M224.218,25.24h6.551v36.184h-6.551V25.24z M238.292,24.569
	c1.149,0,2.135,0.416,2.954,1.247c0.821,0.833,1.233,1.841,1.233,3.023c0,1.168-0.407,2.164-1.222,2.987
	c-0.813,0.824-1.785,1.235-2.917,1.235c-1.166,0-2.158-0.42-2.98-1.26c-0.82-0.839-1.23-1.859-1.23-3.058
	c0-1.152,0.405-2.137,1.219-2.952C236.162,24.977,237.143,24.569,238.292,24.569z M235.018,35.319h6.549v26.104h-6.549V35.319z
	 M262.514,38.966l-4.054,4.054c-1.649-1.632-3.144-2.446-4.487-2.446c-0.736,0-1.312,0.155-1.729,0.468s-0.623,0.699-0.623,1.163
	c0,0.352,0.132,0.677,0.396,0.972c0.264,0.296,0.916,0.7,1.955,1.213l2.399,1.199c2.526,1.246,4.262,2.519,5.205,3.814
	c0.946,1.296,1.417,2.815,1.417,4.56c0,2.32-0.853,4.255-2.556,5.807c-1.703,1.551-3.986,2.327-6.85,2.327
	c-3.808,0-6.847-1.487-9.118-4.464l4.031-4.391c0.767,0.896,1.667,1.62,2.7,2.171c1.03,0.553,1.946,0.829,2.746,0.829
	c0.865,0,1.56-0.207,2.088-0.624c0.527-0.416,0.792-0.896,0.792-1.44c0-1.007-0.952-1.991-2.855-2.951l-2.208-1.104
	c-4.224-2.126-6.333-4.789-6.333-7.988c0-2.064,0.794-3.828,2.387-5.292c1.591-1.463,3.626-2.194,6.106-2.194
	c1.695,0,3.291,0.371,4.785,1.116C260.207,36.506,261.474,37.573,262.514,38.966z M265.228,25.24h6.503v12.718
	c1.279-1.104,2.567-1.933,3.863-2.483c1.296-0.552,2.607-0.828,3.935-0.828c2.591,0,4.775,0.897,6.55,2.688
	c1.52,1.552,2.28,3.831,2.28,6.838v17.252h-6.454V49.979c0-3.024-0.145-5.07-0.433-6.144c-0.289-1.071-0.78-1.872-1.476-2.399
	c-0.695-0.526-1.556-0.792-2.58-0.792c-1.327,0-2.467,0.44-3.418,1.319c-0.952,0.881-1.613,2.08-1.979,3.6
	c-0.191,0.784-0.288,2.575-0.288,5.374v10.486h-6.503V25.24z"/>
<path fill="#E68940" d="M311.501,25.24c5.347,0,9.82,1.785,13.421,5.352c3.6,3.566,5.402,7.958,5.402,13.172
	c0,5.167-1.797,9.551-5.392,13.149c-3.593,3.599-7.974,5.398-13.144,5.398c-5.233,0-9.652-1.792-13.254-5.375
	c-3.6-3.583-5.401-7.917-5.401-13.004c0-3.392,0.819-6.534,2.461-9.43c1.642-2.895,3.878-5.163,6.71-6.803
	C305.138,26.062,308.202,25.24,311.501,25.24z M311.656,28.672c-2.612,0-5.086,0.68-7.425,2.041c-2.34,1.361-4.166,3.195-5.48,5.5
	c-1.313,2.304-1.971,4.873-1.971,7.707c0,4.194,1.454,7.737,4.362,10.625c2.906,2.891,6.413,4.336,10.514,4.336
	c2.74,0,5.275-0.666,7.607-1.994c2.331-1.329,4.148-3.146,5.453-5.45c1.307-2.307,1.961-4.866,1.961-7.685
	c0-2.802-0.654-5.335-1.961-7.6c-1.305-2.266-3.143-4.078-5.514-5.439S314.316,28.672,311.656,28.672z M333.901,35.319h3.359v4.678
	c1.344-1.791,2.831-3.131,4.463-4.02c1.631-0.887,3.407-1.331,5.326-1.331c1.953,0,3.685,0.495,5.196,1.488
	c1.511,0.991,2.626,2.327,3.346,4.007c0.719,1.68,1.08,4.294,1.08,7.845v13.438h-3.358V48.971c0-3.007-0.126-5.015-0.375-6.022
	c-0.39-1.729-1.136-3.026-2.239-3.898c-1.103-0.873-2.545-1.309-4.318-1.309c-2.033,0-3.853,0.672-5.46,2.017
	c-1.608,1.344-2.669,3.007-3.181,4.99c-0.32,1.295-0.479,3.663-0.479,7.102v9.574h-3.359V35.319z M361.398,25.24h3.36v36.184h-3.36
	V25.24z M370.939,24.569c0.764,0,1.418,0.272,1.959,0.815c0.541,0.544,0.812,1.2,0.812,1.967c0,0.753-0.271,1.4-0.812,1.944
	s-1.195,0.815-1.959,0.815c-0.748,0-1.395-0.271-1.936-0.815c-0.542-0.544-0.812-1.191-0.812-1.944c0-0.767,0.271-1.423,0.812-1.967
	C369.545,24.842,370.191,24.569,370.939,24.569z M369.272,35.319h3.358v26.104h-3.358V35.319z M377.646,35.319h3.36v4.678
	c1.344-1.791,2.831-3.131,4.462-4.02c1.632-0.887,3.408-1.331,5.327-1.331c1.951,0,3.683,0.495,5.195,1.488
	c1.511,0.991,2.626,2.327,3.347,4.007c0.719,1.68,1.079,4.294,1.079,7.845v13.438h-3.358V48.971c0-3.007-0.125-5.015-0.373-6.022
	c-0.391-1.729-1.136-3.026-2.241-3.898c-1.104-0.873-2.543-1.309-4.319-1.309c-2.032,0-3.853,0.672-5.459,2.017
	c-1.609,1.344-2.667,3.007-3.18,4.99c-0.32,1.295-0.479,3.663-0.479,7.102v9.574h-3.36V35.319z M426.646,52.761l2.831,1.487
	c-0.93,1.825-2.002,3.297-3.219,4.416c-1.216,1.12-2.585,1.972-4.106,2.555c-1.521,0.584-3.242,0.877-5.163,0.877
	c-4.258,0-7.589-1.396-9.989-4.188c-2.402-2.791-3.604-5.945-3.604-9.464c0-3.312,1.017-6.264,3.049-8.854
	c2.578-3.296,6.028-4.943,10.352-4.943c4.45,0,8.005,1.688,10.662,5.062c1.89,2.384,2.851,5.358,2.882,8.925h-23.489
	c0.063,3.033,1.033,5.518,2.907,7.457C411.63,58.03,413.945,59,416.699,59c1.33,0,2.622-0.231,3.88-0.693
	c1.258-0.461,2.326-1.075,3.208-1.84C424.668,55.701,425.62,54.467,426.646,52.761z M426.646,45.732
	c-0.449-1.793-1.102-3.225-1.958-4.296c-0.856-1.07-1.989-1.935-3.399-2.592c-1.41-0.654-2.892-0.983-4.444-0.983
	c-2.563,0-4.765,0.825-6.606,2.471c-1.346,1.2-2.363,3-3.051,5.4H426.646z"/>
</svg>
